<svg fill="azure" xmlns="http://www.w3.org/2000/svg" viewBox="0 0 512.001 512.001"><path d="M79.073 82.85c2.076 2.179 5.031 3.009 7.783 2.483h66.662c4.71 0 8.533-3.814 8.533-8.533s-3.823-8.533-8.533-8.533h-45.252c42.016-33.157 93.656-51.2 147.652-51.2 131.746 0 238.933 107.187 238.933 238.933 0 4.719 3.823 8.533 8.533 8.533s8.533-3.814 8.533-8.533c0-141.158-114.842-256-256-256-59.551 0-116.424 20.481-162.132 58.025V8.533C93.785 3.814 89.962 0 85.251 0s-8.533 3.814-8.533 8.533V76.8c0 .026.004.052.004.078a8.508 8.508 0 002.351 5.972zM67.075 402.254c-2.901-3.746-8.192-4.429-11.947-1.527s-4.437 8.277-1.536 12.032a8.692 8.692 0 006.741 3.243c1.877 0 3.669-.597 5.291-1.792a8.538 8.538 0 001.451-11.956zm4.096 18.44c-3.413 3.243-3.499 8.619-.256 12.032 1.621 1.792 3.925 2.645 6.144 2.645 2.133 0 4.267-.768 5.888-2.304 3.413-3.328 3.499-8.704.256-12.117s-8.618-3.498-12.032-.256zm30.038 17.238c-3.584-3.072-8.96-2.645-12.032.939-3.072 3.575-2.645 9.045.939 12.032a8.59 8.59 0 005.547 2.048c2.389 0 4.779-1.024 6.485-2.987 3.071-3.584 2.645-8.96-.939-12.032zm62.89 38.647c-4.352-1.792-9.301.265-11.179 4.608-1.792 4.361.256 9.31 4.608 11.187a9.023 9.023 0 003.243.597c3.413 0 6.571-1.963 7.936-5.205 1.792-4.352-.256-9.386-4.608-11.187zm-22.272-10.667c-4.096-2.295-9.301-.76-11.52 3.422-2.304 4.096-.768 9.301 3.328 11.511 1.365.777 2.731 1.118 4.096 1.118 3.072 0 5.973-1.621 7.509-4.437 2.305-4.181.769-9.386-3.413-11.614zm45.568 19.038c-4.523-1.365-9.301 1.195-10.667 5.717-1.365 4.523 1.195 9.216 5.717 10.581a8.632 8.632 0 002.475.341c3.669 0 7.083-2.389 8.192-6.059 1.366-4.521-1.194-9.3-5.717-10.58zm-66.56-32c-3.925-2.645-9.216-1.707-11.861 2.219-2.731 3.84-1.707 9.216 2.133 11.861 1.536 1.015 3.157 1.536 4.864 1.536 2.731 0 5.376-1.365 6.997-3.755 2.731-3.839 1.707-9.13-2.133-11.861zM8.622 274.092h.341c4.693-.179 8.363-4.181 8.192-8.875s-4.181-8.371-8.875-8.192c-4.693.162-8.363 4.087-8.192 8.875.171 4.522 3.926 8.192 8.534 8.192zm44.373 107.861c-2.475-3.925-7.765-5.205-11.776-2.731-4.011 2.56-5.205 7.757-2.731 11.776 1.621 2.645 4.352 4.011 7.253 4.011 1.536 0 3.072-.427 4.523-1.289 4.011-2.474 5.206-7.756 2.731-11.767zm-40.874-82.517c4.693-.597 7.936-4.949 7.253-9.643-.683-4.608-5.035-7.851-9.643-7.253-4.693.683-7.936 5.035-7.253 9.643.597 4.267 4.267 7.33 8.448 7.33.341-.001.768-.001 1.195-.077zm5.802 25.002c4.523-1.195 7.339-5.803 6.229-10.411-1.195-4.523-5.803-7.339-10.411-6.144a8.435 8.435 0 00-6.144 10.325c.939 3.84 4.437 6.485 8.192 6.485a9.034 9.034 0 002.134-.255zm13.398 13.227c-1.536-4.437-6.485-6.741-10.923-5.12-4.437 1.621-6.741 6.571-5.12 10.923a8.512 8.512 0 008.021 5.632c1.024 0 1.963-.179 2.987-.521 4.352-1.613 6.656-6.477 5.035-10.914zm9.728 22.699c-2.133-4.267-7.168-5.973-11.435-3.925s-5.973 7.168-3.925 11.435c1.451 2.987 4.523 4.779 7.68 4.779 1.28 0 2.475-.265 3.755-.853 4.181-2.05 5.973-7.17 3.925-11.436zm421.12 32.597c-3.84-2.816-9.216-1.877-11.947 1.963-2.731 3.755-1.877 9.122 1.963 11.861 1.536 1.109 3.243 1.621 4.949 1.621 2.731 0 5.291-1.28 6.997-3.584 2.731-3.84 1.878-9.13-1.962-11.861zm23.808-45.312c-4.352-1.877-9.387.085-11.264 4.352-1.877 4.352 0 9.378 4.352 11.264a8.256 8.256 0 003.413.768c3.328 0 6.4-1.963 7.851-5.12 1.877-4.267-.086-9.387-4.352-11.264zm-10.752 23.211c-4.096-2.304-9.301-.853-11.605 3.243-2.389 4.096-.939 9.301 3.157 11.605 1.28.768 2.731 1.109 4.181 1.109 2.987 0 5.888-1.536 7.424-4.267 2.389-4.104.939-9.301-3.157-11.69zm-28.331 42.581c-3.584-3.072-8.96-2.816-12.117.768h.085c-3.157 3.499-2.816 8.875.683 12.032 1.621 1.451 3.669 2.133 5.632 2.133 2.389 0 4.693-.939 6.4-2.901 3.157-3.499 2.816-8.875-.683-12.032zm52.992-114.944c-4.608-1.024-9.131 1.963-10.069 6.571-1.024 4.608 1.963 9.131 6.571 10.069a6.483 6.483 0 001.792.256c3.925 0 7.509-2.816 8.277-6.827 1.024-4.608-1.963-9.13-6.571-10.069zm3.072-25.429c-4.693-.512-8.875 2.901-9.387 7.586-.427 4.702 2.901 8.883 7.595 9.395h.939c4.267 0 8.021-3.243 8.448-7.603.512-4.685-2.902-8.952-7.595-9.378zm-8.789 50.346c-4.437-1.451-9.301 1.024-10.667 5.547-1.451 4.437 1.024 9.293 5.461 10.752.853.256 1.792.333 2.645.333 3.584 0 6.912-2.295 8.107-5.879a8.524 8.524 0 00-5.546-10.753zm-76.63 108.459c-3.499 3.157-3.669 8.533-.512 12.032a8.736 8.736 0 006.315 2.731c2.048 0 4.096-.683 5.717-2.219 3.499-3.243 3.755-8.619.512-12.032-3.157-3.499-8.618-3.755-12.032-.512zm-108.032 57.003c-4.608 1.109-7.509 5.632-6.4 10.24.853 3.925 4.437 6.656 8.277 6.656.683 0 1.28-.085 1.963-.256 4.523-1.024 7.424-5.632 6.4-10.24a8.574 8.574 0 00-10.24-6.4zm89.003-41.302c-3.755 2.816-4.523 8.192-1.707 11.938 1.621 2.313 4.181 3.507 6.827 3.507 1.792 0 3.584-.597 5.12-1.707 3.755-2.816 4.523-8.201 1.707-11.947-2.816-3.839-8.192-4.607-11.947-1.791zm-113.323 45.568c-4.693.597-8.021 4.864-7.424 9.557.512 4.267 4.181 7.424 8.448 7.424h1.024c4.693-.597 8.021-4.864 7.424-9.557-.512-4.693-4.778-8.021-9.472-7.424zm-49.322.939c-4.693-.341-8.875 3.157-9.216 7.851-.427 4.693 3.072 8.781 7.765 9.216h.683c4.437 0 8.192-3.328 8.533-7.851.427-4.693-3.072-8.789-7.765-9.216zm-24.491-3.328c-4.608-.853-9.131 2.219-9.984 6.827-.853 4.599 2.133 9.045 6.827 9.984.512.085 1.024.085 1.621.085 4.011 0 7.595-2.816 8.363-6.912.853-4.617-2.219-9.045-6.827-9.984zm49.152 4.181v-.085c-4.693.171-8.448 4.011-8.363 8.704.085 4.693 3.925 8.448 8.533 8.448h.171v-.085c4.693-.085 8.448-3.925 8.363-8.619-.085-4.779-4.011-8.533-8.704-8.363zm95.573-22.016c-4.267 1.963-6.144 6.997-4.096 11.264 1.451 3.157 4.523 4.949 7.765 4.949 1.195 0 2.389-.256 3.584-.768 4.267-1.963 6.144-7.083 4.096-11.349-1.962-4.267-6.997-6.144-11.349-4.096zm-22.869 9.216a8.512 8.512 0 00-5.291 10.837c1.195 3.499 4.523 5.717 8.021 5.717.939 0 1.877-.085 2.816-.435 4.437-1.527 6.827-6.4 5.291-10.829-1.536-4.445-6.4-6.826-10.837-5.29zm44.715-20.821c-4.011 2.466-5.376 7.68-2.901 11.776 1.536 2.645 4.437 4.096 7.339 4.096 1.451 0 2.987-.341 4.352-1.195 4.011-2.389 5.376-7.68 2.901-11.691-2.39-4.01-7.595-5.375-11.691-2.986z"/><path d="M255.892 85.283c-94.106 0-170.667 76.561-170.667 170.667s76.561 170.667 170.667 170.667 170.667-76.561 170.667-170.667S349.998 85.283 255.892 85.283zm0 324.267c-84.693 0-153.6-68.907-153.6-153.6s68.907-153.6 153.6-153.6 153.6 68.907 153.6 153.6-68.906 153.6-153.6 153.6z"/><path d="M281.492 221.816a8.53 8.53 0 008.533 8.533 8.53 8.53 0 008.533-8.533c0-20.605-14.682-37.844-34.133-41.808v-9.392c0-4.719-3.823-8.533-8.533-8.533s-8.533 3.814-8.533 8.533v9.392c-19.451 3.964-34.133 21.203-34.133 41.808s14.682 37.844 34.133 41.808v50.59c-9.931-3.523-17.067-13.009-17.067-24.132a8.53 8.53 0 00-8.533-8.533 8.53 8.53 0 00-8.533 8.533c0 20.605 14.682 37.844 34.133 41.808v9.392c0 4.719 3.823 8.533 8.533 8.533s8.533-3.814 8.533-8.533v-9.392c19.451-3.964 34.133-21.203 34.133-41.808s-14.682-37.844-34.133-41.808v-50.59c9.932 3.524 17.067 13.01 17.067 24.132zm-51.2 0c0-11.123 7.135-20.608 17.067-24.132v48.263c-9.931-3.522-17.067-13.008-17.067-24.131zm51.2 68.267c0 11.123-7.135 20.608-17.067 24.132v-48.263c9.932 3.523 17.067 13.008 17.067 24.131z"/></svg>