<svg height="512pt" fill="azure" viewBox="0 0 512.21 512" width="512pt" xmlns="http://www.w3.org/2000/svg"><path d="M400.574 154.328c-3.414-1.664-7.058-3.293-10.82-4.898 21.816-42.309 11.594-94.075-24.664-124.922-36.258-30.844-88.992-32.633-127.258-4.32-38.27 28.316-51.977 79.269-33.082 122.964-5.434 2.055-10.766 4.332-16.016 6.774-20.941-19.156-53.785-21.555-67.695-21.633a17.113 17.113 0 00-16.973 14.328 130.874 130.874 0 00-1.511 24.313 148.097 148.097 0 00-20.395 2.558 17.136 17.136 0 00-13.855 17.418 104.848 104.848 0 0012.664 47.785c-.973 1.086-1.957 2.16-2.922 3.243-5.45 6.078-11.09 12.359-16.844 18.167a68.8 68.8 0 01-38.246 14.106A26.533 26.533 0 00.531 301.785l13.875 69.805c1.051 5.887 6.692 10.547 16.742 17.066l1.196.785a108.8 108.8 0 0024.176 11.68 131.831 131.831 0 0115.683 6.77 89.857 89.857 0 0129.688 25.855 81.652 81.652 0 004.59 5.828 111.14 111.14 0 0055.69 31.453v15.668c0 14.137 11.462 25.598 25.599 25.598h59.734c14.137 0 25.601-11.461 25.601-25.598v-1.086c7.141.332 14.274.668 21.477.907 3.91.136 7.8.195 11.648.195 6.145 0 12.141-.223 18.075-.555v.54c0 14.136 11.46 25.597 25.597 25.597h59.735c14.14 0 25.601-11.461 25.601-25.598v-33.05c45.223-27.473 73.965-75.504 76.797-128.34 3.285-69.625-40.472-136.75-111.46-170.977zM298.704 17.36c39.792-.136 74.378 27.29 83.308 66.067 8.925 38.777-10.18 78.57-46.028 95.847a281.789 281.789 0 00-83.882-5.293c-31.637-20.585-45.957-59.535-35.192-95.714 10.762-36.176 44.047-60.961 81.793-60.907zm-177.716 128a97.665 97.665 0 0151.02 13.153c-8.14 4.625-16.356 9.957-24.524 15.726a81.75 81.75 0 00-27.87-7.066 107.886 107.886 0 011.374-21.813zm-35.515 40.86a128.272 128.272 0 0125.832-2.45c.152 0 .28.079.425.079s.528 0 .793-.055a53.02 53.02 0 0142.668 17.922 25.598 25.598 0 015.118 27.777 38.594 38.594 0 01-32.434 18.27c-19.031 0-40.441-19.262-42.496-61.543zm409.496 138.273a142.203 142.203 0 01-60.176 108.817 8.414 8.414 0 00-8.09-6.348 8.532 8.532 0 00-8.531 8.531v51.203a8.533 8.533 0 01-8.535 8.532h-59.735a8.532 8.532 0 01-8.53-8.532v-25.601c0-4.711-3.821-8.531-8.536-8.531a8.532 8.532 0 00-8.531 8.53v7.895c-9.457.563-19.168.852-29.16.469-7.391-.246-14.711-.582-22.04-.922v-7.441c0-4.711-3.824-8.531-8.535-8.531a8.533 8.533 0 00-8.535 8.53v25.602a8.533 8.533 0 01-8.531 8.532H187.77a8.532 8.532 0 01-8.532-8.532v-42.668c0-4.71-3.82-8.535-8.535-8.535-4.71 0-8.531 3.824-8.531 8.535v9.192a88.349 88.349 0 01-42.754-24.817 66.627 66.627 0 01-3.711-4.71 107 107 0 00-35.457-30.864 146.703 146.703 0 00-17.656-7.68 94.708 94.708 0 01-20.617-9.812l-1.543-1.016a58.3 58.3 0 01-9.508-7.03l-13.653-68.9a9.449 9.449 0 011.59-7.44 9.257 9.257 0 016.348-3.852c15.36-2.02 36.18-6.961 48.129-19.004 6.047-6.117 11.836-12.559 17.414-18.77l.71-.797a51.416 51.416 0 0036.411 16.301 55.406 55.406 0 0047.734-27.742 42.36 42.36 0 00-6.773-45.652 53.825 53.825 0 00-6.258-6.88c6.207-4.19 12.41-8.156 18.555-11.62a217.153 217.153 0 0131.914-14.508 103.114 103.114 0 0015.144 18.21c-9.625 1.442-15.718 2.805-16.742 3.036a8.539 8.539 0 00-6.398 10.242 8.535 8.535 0 0010.238 6.399c1.066-.254 107.93-24.063 172.16 24.109 3.77 2.824 9.121 2.062 11.95-1.707a8.536 8.536 0 00-1.708-11.95 152.21 152.21 0 00-39.578-21.007 101.233 101.233 0 0022.27-21.77c4.492 1.871 8.773 3.739 12.742 5.668 64.844 31.301 104.824 92.067 101.844 154.836zm0 0"/><path d="M273.105 130.188c0-4.711-3.824-8.532-8.535-8.532a8.533 8.533 0 00-8.535 8.531c0 18.93 19.14 34.333 42.668 34.333s42.668-15.364 42.668-34.333c0-16.57-14.687-30.437-34.133-33.62V62.433c9.813 2.441 17.067 8.824 17.067 16.164 0 4.71 3.82 8.53 8.53 8.53a8.533 8.533 0 008.536-8.53c0-16.582-14.687-30.442-34.133-33.633V42.96a8.534 8.534 0 10-17.066 0v2.023c-19.45 3.192-34.137 17.067-34.137 33.63s14.688 30.437 34.137 33.628v34.133c-9.817-2.465-17.067-8.848-17.067-16.188zm51.2 0c0 7.34-7.254 13.722-17.067 16.164v-32.317c9.813 2.434 17.067 8.817 17.067 16.153zm-51.2-51.575c0-7.34 7.25-13.722 17.067-16.164v32.324c-9.817-2.437-17.067-8.82-17.067-16.16zm0 0"/></svg>