<svg fill="azure" version="1.1" id="Layer_1" xmlns="http://www.w3.org/2000/svg" xmlns:xlink="http://www.w3.org/1999/xlink" x="0px" y="0px" viewBox="0 0 512.001 512.001" style="enable-background:new 0 0 512.001 512.001;" xml:space="preserve"><g> <g> <g> <path d="M79.073,82.85c2.076,2.179,5.031,3.009,7.783,2.483h66.662c4.71,0,8.533-3.814,8.533-8.533s-3.823-8.533-8.533-8.533 h-45.252c42.016-33.157,93.656-51.2,147.652-51.2c131.746,0,238.933,107.187,238.933,238.933c0,4.719,3.823,8.533,8.533,8.533 s8.533-3.814,8.533-8.533c0-141.158-114.842-256-256-256C196.366,0,139.493,20.481,93.785,58.025V8.533 C93.785,3.814,89.962,0,85.251,0s-8.533,3.814-8.533,8.533V76.8c0,0.026,0.004,0.052,0.004,0.078 C76.701,79.021,77.478,81.175,79.073,82.85z"></path> <path d="M67.075,402.254c-2.901-3.746-8.192-4.429-11.947-1.527s-4.437,8.277-1.536,12.032c1.707,2.133,4.267,3.243,6.741,3.243 c1.877,0,3.669-0.597,5.291-1.792C69.294,411.308,69.977,406.017,67.075,402.254z"></path> <path d="M71.171,420.694c-3.413,3.243-3.499,8.619-0.256,12.032c1.621,1.792,3.925,2.645,6.144,2.645 c2.133,0,4.267-0.768,5.888-2.304c3.413-3.328,3.499-8.704,0.256-12.117S74.585,417.452,71.171,420.694z"></path> <path d="M101.209,437.932c-3.584-3.072-8.96-2.645-12.032,0.939c-3.072,3.575-2.645,9.045,0.939,12.032 c1.621,1.365,3.584,2.048,5.547,2.048c2.389,0,4.779-1.024,6.485-2.987C105.219,446.38,104.793,441.004,101.209,437.932z"></path> <path d="M164.099,476.579c-4.352-1.792-9.301,0.265-11.179,4.608c-1.792,4.361,0.256,9.31,4.608,11.187 c1.109,0.427,2.219,0.597,3.243,0.597c3.413,0,6.571-1.963,7.936-5.205C170.499,483.414,168.451,478.38,164.099,476.579z"></path> <path d="M141.827,465.912c-4.096-2.295-9.301-0.76-11.52,3.422c-2.304,4.096-0.768,9.301,3.328,11.511 c1.365,0.777,2.731,1.118,4.096,1.118c3.072,0,5.973-1.621,7.509-4.437C147.545,473.345,146.009,468.14,141.827,465.912z"></path> <path d="M187.395,484.95c-4.523-1.365-9.301,1.195-10.667,5.717c-1.365,4.523,1.195,9.216,5.717,10.581 c0.853,0.256,1.707,0.341,2.475,0.341c3.669,0,7.083-2.389,8.192-6.059C194.478,491.009,191.918,486.23,187.395,484.95z"></path> <path d="M120.835,452.95c-3.925-2.645-9.216-1.707-11.861,2.219c-2.731,3.84-1.707,9.216,2.133,11.861 c1.536,1.015,3.157,1.536,4.864,1.536c2.731,0,5.376-1.365,6.997-3.755C125.699,460.972,124.675,455.681,120.835,452.95z"></path> <path d="M8.622,274.092h0.341c4.693-0.179,8.363-4.181,8.192-8.875s-4.181-8.371-8.875-8.192 c-4.693,0.162-8.363,4.087-8.192,8.875C0.259,270.422,4.014,274.092,8.622,274.092z"></path> <path d="M52.995,381.953c-2.475-3.925-7.765-5.205-11.776-2.731c-4.011,2.56-5.205,7.757-2.731,11.776 c1.621,2.645,4.352,4.011,7.253,4.011c1.536,0,3.072-0.427,4.523-1.289C54.275,391.246,55.47,385.964,52.995,381.953z"></path> <path d="M12.121,299.436c4.693-0.597,7.936-4.949,7.253-9.643c-0.683-4.608-5.035-7.851-9.643-7.253 c-4.693,0.683-7.936,5.035-7.253,9.643c0.597,4.267,4.267,7.33,8.448,7.33C11.267,299.512,11.694,299.512,12.121,299.436z"></path> <path d="M17.923,324.438c4.523-1.195,7.339-5.803,6.229-10.411c-1.195-4.523-5.803-7.339-10.411-6.144 c-4.523,1.109-7.339,5.717-6.144,10.325c0.939,3.84,4.437,6.485,8.192,6.485C16.473,324.694,17.241,324.609,17.923,324.438z"></path> <path d="M31.321,337.665c-1.536-4.437-6.485-6.741-10.923-5.12c-4.437,1.621-6.741,6.571-5.12,10.923 c1.28,3.499,4.523,5.632,8.021,5.632c1.024,0,1.963-0.179,2.987-0.521C30.638,346.966,32.942,342.102,31.321,337.665z"></path> <path d="M41.049,360.364c-2.133-4.267-7.168-5.973-11.435-3.925c-4.267,2.048-5.973,7.168-3.925,11.435 c1.451,2.987,4.523,4.779,7.68,4.779c1.28,0,2.475-0.265,3.755-0.853C41.305,369.75,43.097,364.63,41.049,360.364z"></path> <path d="M462.169,392.961c-3.84-2.816-9.216-1.877-11.947,1.963c-2.731,3.755-1.877,9.122,1.963,11.861 c1.536,1.109,3.243,1.621,4.949,1.621c2.731,0,5.291-1.28,6.997-3.584C466.862,400.982,466.009,395.692,462.169,392.961z"></path> <path d="M485.977,347.649c-4.352-1.877-9.387,0.085-11.264,4.352c-1.877,4.352,0,9.378,4.352,11.264 c1.109,0.512,2.304,0.768,3.413,0.768c3.328,0,6.4-1.963,7.851-5.12C492.206,354.646,490.243,349.526,485.977,347.649z"></path> <path d="M475.225,370.86c-4.096-2.304-9.301-0.853-11.605,3.243c-2.389,4.096-0.939,9.301,3.157,11.605 c1.28,0.768,2.731,1.109,4.181,1.109c2.987,0,5.888-1.536,7.424-4.267C480.771,378.446,479.321,373.249,475.225,370.86z"></path> <path d="M446.894,413.441c-3.584-3.072-8.96-2.816-12.117,0.768h0.085c-3.157,3.499-2.816,8.875,0.683,12.032 c1.621,1.451,3.669,2.133,5.632,2.133c2.389,0,4.693-0.939,6.4-2.901C450.734,421.974,450.393,416.598,446.894,413.441z"></path> <path d="M499.886,298.497c-4.608-1.024-9.131,1.963-10.069,6.571c-1.024,4.608,1.963,9.131,6.571,10.069 c0.597,0.171,1.195,0.256,1.792,0.256c3.925,0,7.509-2.816,8.277-6.827C507.481,303.958,504.494,299.436,499.886,298.497z"></path> <path d="M502.958,273.068c-4.693-0.512-8.875,2.901-9.387,7.586c-0.427,4.702,2.901,8.883,7.595,9.395h0.939 c4.267,0,8.021-3.243,8.448-7.603C511.065,277.761,507.651,273.494,502.958,273.068z"></path> <path d="M494.169,323.414c-4.437-1.451-9.301,1.024-10.667,5.547c-1.451,4.437,1.024,9.293,5.461,10.752 c0.853,0.256,1.792,0.333,2.645,0.333c3.584,0,6.912-2.295,8.107-5.879C501.166,329.644,498.691,324.865,494.169,323.414z"></path> <path d="M417.539,431.873c-3.499,3.157-3.669,8.533-0.512,12.032c1.707,1.792,4.011,2.731,6.315,2.731 c2.048,0,4.096-0.683,5.717-2.219c3.499-3.243,3.755-8.619,0.512-12.032C426.414,428.886,420.953,428.63,417.539,431.873z"></path> <path d="M309.507,488.876c-4.608,1.109-7.509,5.632-6.4,10.24c0.853,3.925,4.437,6.656,8.277,6.656 c0.683,0,1.28-0.085,1.963-0.256c4.523-1.024,7.424-5.632,6.4-10.24C318.638,490.668,314.115,487.852,309.507,488.876z"></path> <path d="M398.51,447.574c-3.755,2.816-4.523,8.192-1.707,11.938c1.621,2.313,4.181,3.507,6.827,3.507 c1.792,0,3.584-0.597,5.12-1.707c3.755-2.816,4.523-8.201,1.707-11.947C407.641,445.526,402.265,444.758,398.51,447.574z"></path> <path d="M285.187,493.142c-4.693,0.597-8.021,4.864-7.424,9.557c0.512,4.267,4.181,7.424,8.448,7.424h1.024 c4.693-0.597,8.021-4.864,7.424-9.557C294.147,495.873,289.881,492.545,285.187,493.142z"></path> <path d="M235.865,494.081c-4.693-0.341-8.875,3.157-9.216,7.851c-0.427,4.693,3.072,8.781,7.765,9.216h0.683 c4.437,0,8.192-3.328,8.533-7.851C244.057,498.604,240.558,494.508,235.865,494.081z"></path> <path d="M211.374,490.753c-4.608-0.853-9.131,2.219-9.984,6.827c-0.853,4.599,2.133,9.045,6.827,9.984 c0.512,0.085,1.024,0.085,1.621,0.085c4.011,0,7.595-2.816,8.363-6.912C219.054,496.12,215.982,491.692,211.374,490.753z"></path> <path d="M260.526,494.934v-0.085c-4.693,0.171-8.448,4.011-8.363,8.704c0.085,4.693,3.925,8.448,8.533,8.448h0.171v-0.085 c4.693-0.085,8.448-3.925,8.363-8.619C269.145,498.518,265.219,494.764,260.526,494.934z"></path> <path d="M356.099,472.918c-4.267,1.963-6.144,6.997-4.096,11.264c1.451,3.157,4.523,4.949,7.765,4.949 c1.195,0,2.389-0.256,3.584-0.768c4.267-1.963,6.144-7.083,4.096-11.349C365.486,472.747,360.451,470.87,356.099,472.918z"></path> <path d="M333.23,482.134c-4.437,1.536-6.827,6.315-5.291,10.837c1.195,3.499,4.523,5.717,8.021,5.717 c0.939,0,1.877-0.085,2.816-0.435c4.437-1.527,6.827-6.4,5.291-10.829C342.531,482.979,337.667,480.598,333.23,482.134z"></path> <path d="M377.945,461.313c-4.011,2.466-5.376,7.68-2.901,11.776c1.536,2.645,4.437,4.096,7.339,4.096 c1.451,0,2.987-0.341,4.352-1.195c4.011-2.389,5.376-7.68,2.901-11.691C387.246,460.289,382.041,458.924,377.945,461.313z"></path> <path d="M255.892,85.283c-94.106,0-170.667,76.561-170.667,170.667s76.561,170.667,170.667,170.667 s170.667-76.561,170.667-170.667S349.998,85.283,255.892,85.283z M255.892,409.55c-84.693,0-153.6-68.907-153.6-153.6 s68.907-153.6,153.6-153.6s153.6,68.907,153.6,153.6S340.586,409.55,255.892,409.55z"></path> <path d="M281.492,221.816c0,4.719,3.823,8.533,8.533,8.533c4.71,0,8.533-3.814,8.533-8.533c0-20.605-14.682-37.844-34.133-41.808 v-9.392c0-4.719-3.823-8.533-8.533-8.533s-8.533,3.814-8.533,8.533v9.392c-19.451,3.964-34.133,21.203-34.133,41.808 c0,20.605,14.682,37.844,34.133,41.808v50.59c-9.931-3.523-17.067-13.009-17.067-24.132c0-4.719-3.823-8.533-8.533-8.533 c-4.71,0-8.533,3.814-8.533,8.533c0,20.605,14.682,37.844,34.133,41.808v9.392c0,4.719,3.823,8.533,8.533,8.533 s8.533-3.814,8.533-8.533v-9.392c19.451-3.964,34.133-21.203,34.133-41.808c0-20.605-14.682-37.844-34.133-41.808v-50.59 C274.357,201.208,281.492,210.694,281.492,221.816z M230.292,221.816c0-11.123,7.135-20.608,17.067-24.132v48.263 C237.428,242.425,230.292,232.939,230.292,221.816z M281.492,290.083c0,11.123-7.135,20.608-17.067,24.132v-48.263 C274.357,269.475,281.492,278.96,281.492,290.083z"></path> </g> </g></g><g></g><g></g><g></g><g></g><g></g><g></g><g></g><g></g><g></g><g></g><g></g><g></g><g></g><g></g><g></g></svg>